0
SECTION
2
HEADER
9
$INSUNITS
70
4
9
$ACADVER
1
AC1014
9
$HANDSEED
5
FFFF
0
ENDSEC
0
SECTION
2
TABLES
0
TABLE
2
VPORT
5
8
100
AcDbSymbolTable
0
ENDTAB
0
TABLE
2
LTYPE
5
5
100
AcDbSymbolTable
0
LTYPE
5
14
100
AcDbSymbolTableRecord
100
AcDbLinetypeTableRecord
2
BYBLOCK
70
0
0
LTYPE
5
15
100
AcDbSymbolTableRecord
100
AcDbLinetypeTableRecord
2
BYLAYER
70
0
0
ENDTAB
0
TABLE
2
LAYER
5
2
100
AcDbSymbolTable
70
2
0
LAYER
5
50
100
AcDbSymbolTableRecord
100
AcDbLayerTableRecord
2
0
70
0
6
CONTINUOUS
0
ENDTAB
0
TABLE
2
STYLE
5
3
100
AcDbSymbolTable
70
1
0
STYLE
5
11
100
AcDbSymbolTableRecord
100
AcDbTextStyleTableRecord
2
STANDARD
70
0
0
ENDTAB
0
TABLE
2
VIEW
5
6
100
AcDbSymbolTable
70
0
0
ENDTAB
0
TABLE
2
UCS
5
7
100
AcDbSymbolTable
70
0
0
ENDTAB
0
TABLE
2
APPID
5
9
100
AcDbSymbolTable
70
2
0
APPID
5
12
100
AcDbSymbolTableRecord
100
AcDbRegAppTableRecord
2
ACAD
70
0
0
ENDTAB
0
TABLE
2
DIMSTYLE
5
A
100
AcDbSymbolTable
70
1
0
ENDTAB
0
TABLE
2
BLOCK_RECORD
5
1
100
AcDbSymbolTable
70
1
0
BLOCK_RECORD
5
1F
100
AcDbSymbolTableRecord
100
AcDbBlockTableRecord
2
*MODEL_SPACE
0
BLOCK_RECORD
5
1B
100
AcDbSymbolTableRecord
100
AcDbBlockTableRecord
2
*PAPER_SPACE
0
ENDTAB
0
ENDSEC
0
SECTION
2
BLOCKS
0
BLOCK
5
20
100
AcDbEntity
100
AcDbBlockBegin
2
*MODEL_SPACE
0
ENDBLK
5
21
100
AcDbEntity
100
AcDbBlockEnd
0
BLOCK
5
1C
100
AcDbEntity
100
AcDbBlockBegin
2
*PAPER_SPACE
0
ENDBLK
5
1D
100
AcDbEntity
100
AcDbBlockEnd
0
ENDSEC
0
SECTION
2
ENTITIES
0
LWPOLYLINE
5
100
100
AcDbEntity
8
0
100
AcDbPolyline
90
8
70
1
43
0.0
10
760.10000000000002
20
-59.57500000000006
42
0.41421356237320428
10
759.60000000000025
20
-60.075000000000074
10
759.60000000000025
20
-73.275000000000063
42
0.41421356237343843
10
760.10000000000002
20
-73.774999999999864
10
773.29999999999984
20
-73.775000000000205
42
0.4142135623730222
10
773.79999999999995
20
-73.275000000000063
10
773.79999999999995
20
-60.075000000000074
42
0.41421356237383383
10
773.29999999999984
20
-59.575000000000138
0
LWPOLYLINE
5
101
100
AcDbEntity
8
0
100
AcDbPolyline
90
8
70
1
43
0.0
10
592.82500000000016
20
-2.9250000000000487
42
0.41421356237327062
10
592.32500000000016
20
-2.4249999999999194
10
579.125
20
-2.4250000000000993
42
0.41421356237333534
10
578.625
20
-2.9250000000000487
10
578.625
20
-16.12500000000005
42
0.41421356237350737
10
579.125
20
-16.624999999999986
10
592.32500000000016
20
-16.625000000000107
42
0.41421356237294804
10
592.82500000000016
20
-16.12500000000005
0
LWPOLYLINE
5
102
100
AcDbEntity
8
0
100
AcDbPolyline
90
8
70
1
43
0.0
10
725.67499999999984
20
-54.725000000000044
42
0.41421356237295975
10
726.17499999999973
20
-54.225000000000065
10
726.17499999999995
20
-41.025000000000063
42
0.41421356237363094
10
725.67499999999984
20
-40.524999999999906
10
712.47500000000002
20
-40.525000000000126
42
0.41421356237290774
10
711.97500000000002
20
-41.025000000000063
10
711.97500000000002
20
-54.225000000000065
42
0.4142135623732407
10
712.47500000000002
20
-54.725000000000286
0
LWPOLYLINE
5
103
100
AcDbEntity
8
0
100
AcDbPolyline
90
8
70
1
43
0.0
10
526.73749999999995
20
-59.575000000000038
10
539.9375
20
-59.575000000000102
42
-0.41421356237316265
10
540.4375
20
-60.075000000000045
10
540.43749999999989
20
-73.275000000000034
42
-0.41421356237319906
10
539.9375
20
-73.775000000000034
10
526.73749999999995
20
-73.775000000000063
42
-0.41421356237312623
10
526.23749999999995
20
-73.275000000000034
10
526.23749999999995
20
-60.075000000000045
42
-0.41421356237311585
0
LWPOLYLINE
5
104
100
AcDbEntity
8
0
100
AcDbPolyline
90
8
70
1
43
0.0
10
545.28749999999991
20
-73.275000000000034
10
545.28750000000002
20
-60.075000000000045
42
-0.41421356237318868
10
545.78750000000002
20
-59.575000000000102
10
561.36875000000009
20
-59.575000000000117
42
-0.41421356237340201
10
561.86875000000009
20
-60.075000000000045
10
561.86874999999998
20
-73.275000000000034
42
-0.4142135623730534
10
561.36875000000009
20
-73.775000000000006
10
545.78750000000002
20
-73.774999999999935
42
-0.41421356237300661
0
LWPOLYLINE
5
105
100
AcDbEntity
8
0
100
AcDbPolyline
90
8
70
1
43
0.0
10
540.52499999999998
20
-54.225000000000058
42
0.41421356237294416
10
541.02499999999998
20
-54.725000000000051
10
554.22500000000002
20
-54.725000000000037
42
0.41421356237305862
10
554.72499999999991
20
-54.225000000000058
10
554.72499999999991
20
-41.025000000000055
42
0.4142135623730534
10
554.22500000000002
20
-40.525000000000055
10
541.02499999999986
20
-40.525000000000048
42
0.41421356237319906
10
540.52499999999998
20
-41.025000000000055
0
LWPOLYLINE
5
106
100
AcDbEntity
8
0
100
AcDbPolyline
90
8
70
1
43
0.0
10
578.03750000000014
20
-35.675000000000047
42
0.41421356237338119
10
578.53750000000002
20
-35.175000000000054
10
578.53750000000002
20
-21.975000000000048
42
0.41421356237305601
10
578.03750000000014
20
-21.475000000000076
10
564.83749999999998
20
-21.475000000000147
42
0.41421356237318346
10
564.3375000000002
20
-21.975000000000048
10
564.3375000000002
20
-35.175000000000054
42
0.41421356237337598
10
564.83749999999998
20
-35.67500000000004
0
LWPOLYLINE
5
107
100
AcDbEntity
8
0
100
AcDbPolyline
90
8
70
1
43
0.0
10
721.49999999999989
20
-73.275000000000063
42
0.41421356237389106
10
722
20
-73.774999999999835
10
735.19999999999982
20
-73.774999999999977
42
0.41421356237290252
10
735.69999999999982
20
-73.275000000000063
10
735.69999999999982
20
-60.075000000000074
42
0.41421356237356327
10
735.19999999999982
20
-59.575000000000159
10
722
20
-59.57500000000006
42
0.41421356237320428
10
721.50000000000023
20
-60.075000000000074
0
LWPOLYLINE
5
108
100
AcDbEntity
8
0
100
AcDbPolyline
90
8
70
1
43
0.0
10
504.80625000000003
20
-35.17500000000004
42
0.41421356237312101
10
505.30624999999998
20
-35.675000000000054
10
518.50625000000014
20
-35.675000000000033
42
0.41421356237307422
10
519.00624999999991
20
-35.175000000000054
10
519.00625000000014
20
-21.975000000000048
42
0.41421356237334478
10
518.50625000000014
20
-21.475000000000076
10
505.30624999999998
20
-21.475000000000037
42
0.41421356237312101
10
504.80625000000003
20
-21.975000000000048
0
LWPOLYLINE
5
109
100
AcDbEntity
8
0
100
AcDbPolyline
90
8
70
1
43
0.0
10
647.09375000000011
20
-73.775000000000063
42
0.41421356237320428
10
647.59374999999989
20
-73.275000000000063
10
647.59374999999989
20
-60.075000000000074
42
0.41421356237311063
10
647.09375000000011
20
-59.574999999999925
10
626.75
20
-59.57500000000006
42
0.41421356237314705
10
626.25
20
-60.075000000000074
10
626.24999999999989
20
-73.275000000000063
42
0.41421356237304302
10
626.75
20
-73.774999999999977
0
LWPOLYLINE
5
110
100
AcDbEntity
8
0
100
AcDbPolyline
90
4
70
1
43
0.0
10
503.27499999999998
20
-18.299999962967533
42
0.99999999999999989
10
503.27499999999998
20
-19.799999962967533
10
735.13749999999982
20
-19.799999962967497
42
0.99999999999999989
10
735.13749999999982
20
-18.299999962967497
0
LWPOLYLINE
5
111
100
AcDbEntity
8
0
100
AcDbPolyline
90
8
70
1
43
0.0
10
640.53750000000036
20
-35.175000000000054
42
0.4142135623726606
10
641.0374999999998
20
-35.674999999999855
10
654.23749999999995
20
-35.67500000000009
42
0.41421356237348783
10
654.73750000000018
20
-35.175000000000054
10
654.73750000000018
20
-21.975000000000051
42
0.41421356237318868
10
654.2375000000003
20
-21.475000000000239
10
641.03750000000002
20
-21.475000000000023
42
0.41421356237348783
10
640.5374999999998
20
-21.975000000000051
0
LWPOLYLINE
5
112
100
AcDbEntity
8
0
100
AcDbPolyline
90
8
70
1
43
0.0
10
692.83750000000032
20
-21.975000000000051
10
692.83750000000032
20
-35.175000000000054
42
-0.41421356237348783
10
692.33749999999998
20
-35.675000000000082
10
679.13749999999982
20
-35.675000000000331
42
-0.41421356237277507
10
678.63749999999982
20
-35.175000000000054
10
678.63749999999982
20
-21.975000000000051
42
-0.41421356237309243
10
679.13749999999982
20
-21.475000000000037
10
692.33750000000032
20
-21.475000000000207
42
-0.41421356237318607
0
LWPOLYLINE
5
113
100
AcDbEntity
8
0
100
AcDbPolyline
90
8
70
1
43
0.0
10
597.58750000000009
20
-21.975000000000048
10
597.58749999999998
20
-35.175000000000054
42
-0.41421356237333434
10
597.08749999999998
20
-35.675000000000004
10
583.88750000000016
20
-35.675000000000068
42
-0.41421356237312101
10
583.38750000000016
20
-35.175000000000054
10
583.38750000000016
20
-21.975000000000048
42
-0.41421356237312101
10
583.88750000000016
20
-21.47500000000003
10
597.08749999999998
20
-21.475000000000087
42
-0.41421356237325374
0
LWPOLYLINE
5
114
100
AcDbEntity
8
0
100
AcDbPolyline
90
4
70
1
43
0.0
10
735.13749999999982
20
-38.850000000000051
42
0.99999999999999989
10
735.13749999999982
20
-37.350000000000072
10
541.08749999999998
20
-37.350000000000101
42
0.99999999999999989
10
541.08749999999998
20
-38.850000000000094
0
LWPOLYLINE
5
115
100
AcDbEntity
8
0
100
AcDbPolyline
90
4
70
1
43
0.0
10
621.60674999999981
20
-56.400000000000212
42
0.99999999999999989
10
621.60674999999981
20
-57.900000000000212
10
654.61824999999999
20
-57.90000000000007
42
0.99999999999999989
10
654.61824999999999
20
-56.400000000000048
0
LWPOLYLINE
5
116
100
AcDbEntity
8
0
100
AcDbPolyline
90
8
70
1
43
0.0
10
660.0875000000002
20
-21.475000000000119
42
0.41421356237354767
10
659.58749999999998
20
-21.975000000000051
10
659.5875000000002
20
-35.175000000000054
42
0.41421356237319129
10
660.08749999999986
20
-35.67499999999994
10
673.28750000000002
20
-35.674999999999947
42
0.4142135623733838
10
673.78750000000014
20
-35.175000000000054
10
673.7874999999998
20
-21.975000000000051
42
0.41421356237359452
10
673.28750000000014
20
-21.475000000000165
0
LWPOLYLINE
5
117
100
AcDbEntity
8
0
100
AcDbPolyline
90
8
70
1
43
0.0
10
502.92500000000013
20
-2.4250000000000949
10
516.125
20
-2.425000000000157
42
-0.41421356237337698
10
516.625
20
-2.9250000000000416
10
516.62500000000011
20
-16.125000000000043
42
-0.41421356237321211
10
516.125
20
-16.625000000000082
10
502.92500000000013
20
-16.625000000000018
42
-0.41421356237313667
10
502.42500000000007
20
-16.125000000000046
10
502.42500000000007
20
-2.9250000000000398
42
-0.4142135623731939
0
LWPOLYLINE
5
118
100
AcDbEntity
8
0
100
AcDbPolyline
90
8
70
1
43
0.0
10
545.78750000000002
20
-21.475000000000097
42
0.4142135623731939
10
545.28750000000002
20
-21.975000000000048
10
545.28750000000002
20
-35.175000000000054
42
0.41421356237318085
10
545.78750000000002
20
-35.675000000000011
10
558.98749999999995
20
-35.674999999999997
42
0.41421356237333434
10
559.48749999999995
20
-35.175000000000054
10
559.48750000000007
20
-21.975000000000048
42
0.41421356237310025
10
558.98749999999995
20
-21.475000000000165
0
LWPOLYLINE
5
119
100
AcDbEntity
8
0
100
AcDbPolyline
90
8
70
1
43
0.0
10
693.42499999999995
20
-2.4250000000001837
10
706.62500000000011
20
-2.4249999999997698
42
-0.4142135623727809
10
707.125
20
-2.9250000000000576
10
707.12499999999989
20
-16.12500000000006
42
-0.41421356237320167
10
706.62500000000011
20
-16.62500000000006
10
693.42499999999995
20
-16.625000000000192
42
-0.41421356237310936
10
692.92500000000018
20
-16.125000000000053
10
692.92500000000018
20
-2.9250000000000576
42
-0.41421356237329726
0
LWPOLYLINE
5
120
100
AcDbEntity
8
0
100
AcDbPolyline
90
8
70
1
43
0.0
10
654.82500000000016
20
-54.225000000000065
10
654.82500000000016
20
-41.025000000000055
42
-0.41421356237309503
10
655.32500000000016
20
-40.525000000000027
10
668.5250000000002
20
-40.525000000000077
42
-0.41421356237343321
10
669.0250000000002
20
-41.025000000000055
10
669.0250000000002
20
-54.225000000000065
42
-0.41421356237331874
10
668.5250000000002
20
-54.725000000000101
10
655.32500000000016
20
-54.725000000000286
42
-0.41421356237224177
0
LWPOLYLINE
5
121
100
AcDbEntity
8
0
100
AcDbPolyline
90
8
70
1
43
0.0
10
522.53125
20
-21.475000000000062
42
0.41421356237304302
10
521.53125
20
-22.475000000000051
10
521.53125
20
-34.675000000000054
42
0.41421356237323292
10
522.53125
20
-35.675000000000097
10
522.71250000000009
20
-35.675000000000026
42
0.41421356237297147
10
523.71250000000009
20
-34.67500000000004
10
523.71250000000009
20
-22.475000000000037
42
0.41421356237303131
10
522.71250000000009
20
-21.475000000000076
0
LWPOLYLINE
5
122
100
AcDbEntity
8
0
100
AcDbPolyline
90
8
70
1
43
0.0
10
636.27499999999998
20
-2.4250000000000327
42
0.41421356237312168
10
635.77499999999998
20
-2.9250000000000487
10
635.77499999999998
20
-16.125000000000053
42
0.41421356237312362
10
636.27499999999998
20
-16.625000000000068
10
649.47500000000002
20
-16.625000000000075
42
0.41421356237320561
10
649.97499999999991
20
-16.12500000000005
10
649.97500000000014
20
-2.9250000000000527
42
0.41421356237350054
10
649.47500000000002
20
-2.4250000000003435
0
LWPOLYLINE
5
123
100
AcDbEntity
8
0
100
AcDbPolyline
90
8
70
1
43
0.0
10
560.07500000000005
20
-40.525000000000084
10
573.27499999999998
20
-40.525000000000048
42
-0.41421356237311585
10
573.77499999999998
20
-41.025000000000055
10
573.77499999999998
20
-54.225000000000058
42
-0.41421356237312101
10
573.27499999999998
20
-54.725000000000094
10
560.07499999999993
20
-54.72499999999998
42
-0.41421356237311063
10
559.57500000000005
20
-54.225000000000058
10
559.57500000000027
20
-41.025000000000055
42
-0.41421356237313667
0
LWPOLYLINE
5
124
100
AcDbEntity
8
0
100
AcDbPolyline
90
8
70
1
43
0.0
10
745.22499999999968
20
-2.925000000000062
42
0.41421356237363904
10
744.72499999999968
20
-2.4250000000000145
10
731.52500000000032
20
-2.4250000000000598
42
0.414213562372924
10
731.02500000000032
20
-2.9250000000000664
10
731.0250000000002
20
-16.12500000000006
42
0.41421356237266321
10
731.52500000000032
20
-16.625000000000245
10
744.72499999999968
20
-16.625000000000064
42
0.41421356237292334
10
745.22499999999968
20
-16.12500000000006
0
LWPOLYLINE
5
125
100
AcDbEntity
8
0
100
AcDbPolyline
90
8
70
1
43
0.0
10
597.67499999999995
20
-16.12500000000005
42
0.41421356237299228
10
598.17500000000018
20
-16.624999999999989
10
611.375
20
-16.625000000000071
42
0.41421356237312362
10
611.875
20
-16.12500000000005
10
611.875
20
-2.9250000000000509
42
0.41421356237312235
10
611.375
20
-2.4250000000000327
10
598.17500000000018
20
-2.4250000000000571
42
0.41421356237340134
10
597.67500000000018
20
-2.9250000000000487
0
LWPOLYLINE
5
126
100
AcDbEntity
8
0
100
AcDbPolyline
90
8
70
1
43
0.0
10
636.27499999999998
20
-40.525000000000048
10
649.47500000000014
20
-40.525000000000162
42
-0.41421356237329793
10
649.97500000000002
20
-41.025000000000055
10
649.97500000000014
20
-54.225000000000065
42
-0.41421356237326673
10
649.47500000000036
20
-54.724999999999966
10
636.27499999999998
20
-54.725000000000072
42
-0.41421356237311585
10
635.77499999999998
20
-54.225000000000065
10
635.77499999999998
20
-41.025000000000055
42
-0.41421356237311585
0
LWPOLYLINE
5
127
100
AcDbEntity
8
0
100
AcDbPolyline
90
8
70
1
43
0.0
10
592.82500000000016
20
-41.025000000000055
10
592.82500000000016
20
-54.225000000000065
42
-0.41421356237294937
10
592.32500000000016
20
-54.725000000000122
10
579.125
20
-54.725000000000051
42
-0.41421356237294416
10
578.625
20
-54.225000000000058
10
578.625
20
-41.025000000000055
42
-0.41421356237319906
10
579.12499999999989
20
-40.525000000000048
10
592.32500000000016
20
-40.52500000000002
42
-0.41421356237304818
0
LWPOLYLINE
5
128
100
AcDbEntity
8
0
100
AcDbPolyline
90
8
70
1
43
0.0
10
730.4375
20
-35.674999999999947
42
0.4142135623733838
10
730.93750000000023
20
-35.175000000000054
10
730.9375
20
-21.975000000000065
42
0.41421356237330575
10
730.43750000000023
20
-21.475000000000165
10
717.23749999999995
20
-21.475000000000062
42
0.41421356237279328
10
716.73749999999995
20
-21.975000000000051
10
716.73749999999995
20
-35.175000000000054
42
0.4142135623732407
10
717.23749999999995
20
-35.675000000000274
0
LWPOLYLINE
5
129
100
AcDbEntity
8
0
100
AcDbPolyline
90
8
70
1
43
0.0
10
519.00625000000002
20
-60.075000000000045
42
0.41421356237307422
10
518.50625000000025
20
-59.575000000000109
10
505.30624999999998
20
-59.575000000000038
42
0.41421356237311585
10
504.80625000000003
20
-60.075000000000045
10
504.80625000000003
20
-73.275000000000034
42
0.41421356237312623
10
505.30624999999998
20
-73.775000000000063
10
518.50625000000014
20
-73.775000000000091
42
0.41421356237303258
10
519.00624999999991
20
-73.275000000000034
0
LWPOLYLINE
5
130
100
AcDbEntity
8
0
100
AcDbPolyline
90
8
70
1
43
0.0
10
523.71250000000009
20
-60.575000000000045
42
0.41421356237307161
10
522.71249999999998
20
-59.575000000000038
10
522.53125
20
-59.575000000000038
42
0.41421356237304302
10
521.53125
20
-60.575000000000045
10
521.53125
20
-72.775000000000034
42
0.41421356237314966
10
522.53125
20
-73.775000000000091
10
522.71250000000009
20
-73.775000000000063
42
0.41421356237288953
10
523.71250000000009
20
-72.775000000000034
0
LWPOLYLINE
5
131
100
AcDbEntity
8
0
100
AcDbPolyline
90
8
70
1
43
0.0
10
730.88125000000002
20
-41.525000000000063
10
730.88125000000002
20
-53.725000000000087
42
-0.41421356237333173
10
729.88125000000014
20
-54.72499999999998
10
729.70000000000016
20
-54.724999999999653
42
-0.41421356237327711
10
728.70000000000005
20
-53.725000000000087
10
728.69999999999993
20
-41.525000000000063
42
-0.41421356237300139
10
729.70000000000016
20
-40.525000000000119
10
729.8812499999998
20
-40.525000000000198
42
-0.4142135623729884
0
LWPOLYLINE
5
132
100
AcDbEntity
8
0
100
AcDbPolyline
90
8
70
1
43
0.0
10
674.375
20
-2.4250000000001215
10
687.57499999999982
20
-2.4249999999998026
42
-0.41421356237301116
10
688.07500000000016
20
-2.9250000000000576
10
688.07500000000016
20
-16.12500000000006
42
-0.41421356237330054
10
687.57499999999982
20
-16.624999999999954
10
674.375
20
-16.62500000000027
42
-0.41421356237323942
10
673.875
20
-16.125000000000053
10
673.875
20
-2.9250000000000576
42
-0.41421356237290641
0
LWPOLYLINE
5
133
100
AcDbEntity
8
0
100
AcDbPolyline
90
8
70
1
43
0.0
10
753.69375000000002
20
-54.72499999999998
42
0.41421356237333173
10
754.69375000000002
20
-53.725000000000087
10
754.69375000000002
20
-41.525000000000063
42
0.4142135623729884
10
753.6937499999998
20
-40.52500000000019
10
751.13124999999968
20
-40.525000000000091
42
0.41421356237300139
10
750.13125000000002
20
-41.525000000000063
10
750.13125000000002
20
-53.725000000000087
42
0.4142135623731939
10
751.13124999999968
20
-54.725000000000023
0
LWPOLYLINE
5
134
100
AcDbEntity
8
0
100
AcDbPolyline
90
8
70
1
43
0.0
10
621.48750000000018
20
-35.175000000000054
10
621.48750000000018
20
-21.975000000000051
42
-0.41421356237312101
10
621.98750000000018
20
-21.475000000000037
10
635.1875
20
-21.475000000000037
42
-0.41421356237328755
10
635.6875
20
-21.975000000000051
10
635.6875
20
-35.175000000000054
42
-0.41421356237351126
10
635.1875
20
-35.674999999999997
10
621.98750000000018
20
-35.675000000000068
42
-0.41421356237312101
0
LWPOLYLINE
5
135
100
AcDbEntity
8
0
100
AcDbPolyline
90
8
70
1
43
0.0
10
620.45675000000028
20
-72.775000000000063
42
0.41421356237313145
10
621.45675000000028
20
-73.775000000000134
10
622.72500000000014
20
-73.775000000000034
42
0.41421356237304041
10
623.72500000000014
20
-72.775000000000063
10
623.72500000000002
20
-60.575000000000074
42
0.41421356237299878
10
622.72500000000014
20
-59.574999999999974
10
621.45675000000017
20
-59.575000000000067
42
0.414213562373004
10
620.45675000000017
20
-60.575000000000074
0
LWPOLYLINE
5
136
100
AcDbEntity
8
0
100
AcDbPolyline
90
8
70
1
43
0.0
10
697.62499999999989
20
-59.574999999999989
42
0.41421356237309243
10
696.62500000000011
20
-60.575000000000081
10
696.62500000000011
20
-72.775000000000063
42
0.41421356237314183
10
697.62499999999989
20
-73.775000000000006
10
698.92500000000052
20
-73.775000000000091
42
0.41421356237320428
10
699.92500000000018
20
-72.775000000000063
10
699.92500000000018
20
-60.575000000000081
42
0.41421356237299095
10
698.9250000000003
20
-59.575000000000209
0
LWPOLYLINE
5
137
100
AcDbEntity
8
0
100
AcDbPolyline
90
4
70
1
43
0.0
10
607.05674999999997
20
-57.90000000000007
10
597.76874999944096
20
-57.900000000000077
42
-0.99999999999999989
10
597.76874999944096
20
-56.400000000000077
10
607.05674999999997
20
-56.400000000000048
42
-0.99999999999999989
0
LWPOLYLINE
5
138
100
AcDbEntity
8
0
100
AcDbPolyline
90
8
70
1
43
0.0
10
757.71875000000011
20
-40.525000000000077
10
770.91875000000016
20
-40.525000000000077
42
-0.41421356237343843
10
771.41875000000016
20
-41.025000000000063
10
771.41875000000016
20
-54.225000000000065
42
-0.4142135623730222
10
770.91875000000016
20
-54.725000000000207
10
757.71875000000011
20
-54.725000000000243
42
-0.41421356237363094
10
757.21875
20
-54.225000000000065
10
757.21875000000011
20
-41.025000000000063
42
-0.41421356237295975
0
LWPOLYLINE
5
139
100
AcDbEntity
8
0
100
AcDbPolyline
90
8
70
1
43
0.0
10
747.10624999999982
20
-54.725000000000044
10
733.90625
20
-54.725000000000286
42
-0.4142135623732407
10
733.40625
20
-54.225000000000065
10
733.40625
20
-41.025000000000063
42
-0.41421356237290774
10
733.90625
20
-40.525000000000126
10
747.10624999999982
20
-40.524999999999885
42
-0.41421356237363094
10
747.60624999999993
20
-41.025000000000063
10
747.60624999999982
20
-54.225000000000065
42
-0.41421356237295975
0
LWPOLYLINE
5
140
100
AcDbEntity
8
0
100
AcDbPolyline
90
8
70
1
43
0.0
10
712.47500000000002
20
-2.4250000000001233
42
0.41421356237290707
10
711.97500000000002
20
-2.9250000000000576
10
711.97500000000002
20
-16.12500000000006
42
0.4142135623732407
10
712.47500000000002
20
-16.625000000000281
10
725.67499999999984
20
-16.624999999999954
42
0.41421356237338508
10
726.17499999999995
20
-16.12500000000006
10
726.17499999999995
20
-2.9250000000000602
42
0.41421356237363449
10
725.67499999999984
20
-2.4249999999998995
0
LWPOLYLINE
5
141
100
AcDbEntity
8
0
100
AcDbPolyline
90
8
70
1
43
0.0
10
711.38750000000016
20
-35.67500000000021
42
0.41421356237322771
10
711.88750000000016
20
-35.175000000000054
10
711.88750000000016
20
-21.975000000000051
42
0.414213562373415
10
711.38750000000016
20
-21.475000000000147
10
698.18749999999977
20
-21.475000000000151
42
0.41421356237326151
10
697.68749999999966
20
-21.975000000000051
10
697.6875
20
-35.175000000000054
42
0.4142135623736361
10
698.18750000000011
20
-35.67500000000021
0
LWPOLYLINE
5
142
100
AcDbEntity
8
0
100
AcDbPolyline
90
8
70
1
43
0.0
10
651.11874999999998
20
-59.574999999999974
10
654.76825000000019
20
-59.574999999999925
42
-0.41421356237299878
10
655.76824999999997
20
-60.574999999999967
10
655.76824999999985
20
-72.774999999999949
42
-0.41421356237320167
10
654.76825000000019
20
-73.774999999999949
10
651.11874999999998
20
-73.774999999999906
42
-0.41421356237313928
10
650.1187500000002
20
-72.774999999999949
10
650.11875000000032
20
-60.574999999999967
42
-0.41421356237312362
0
LWPOLYLINE
5
143
100
AcDbEntity
8
0
100
AcDbPolyline
90
8
70
1
43
0.0
10
687.57499999999982
20
-54.725000000000044
42
0.41421356237295975
10
688.07499999999982
20
-54.225000000000065
10
688.07499999999993
20
-41.025000000000055
42
0.4142135623736361
10
687.57499999999982
20
-40.524999999999892
10
674.375
20
-40.525000000000119
42
0.41421356237291296
10
673.875
20
-41.025000000000055
10
673.875
20
-54.225000000000065
42
0.4142135623732407
10
674.375
20
-54.725000000000286
0
LWPOLYLINE
5
144
100
AcDbEntity
8
0
100
AcDbPolyline
90
8
70
1
43
0.0
10
752.3125
20
-3.4250000000000624
42
0.41421356237299034
10
751.31250000000011
20
-2.4250000000001926
10
748.75
20
-2.4250000000001339
42
0.41421356237299617
10
747.75
20
-3.4250000000000558
10
747.75
20
-15.625000000000062
42
0.41421356237298967
10
748.75
20
-16.624999999999943
10
751.31250000000011
20
-16.625000000000092
42
0.41421356237328816
10
752.3125
20
-15.625000000000062
0
LWPOLYLINE
5
145
100
AcDbEntity
8
0
100
AcDbPolyline
90
4
70
1
43
0.0
10
697.77499999999975
20
-56.400000000000148
42
0.99999999999999989
10
697.77500000000009
20
-57.900000000000205
10
772.94999999999982
20
-57.899999999999977
42
0.99999999999999989
10
772.94999999999982
20
-56.399999999999935
0
LWPOLYLINE
5
146
100
AcDbEntity
8
0
100
AcDbPolyline
90
57
70
1
43
0.0
10
756.71875
20
-16.625000000000057
10
755.33749999999998
20
-16.625000000000284
42
-0.41421356237323942
10
754.83749999999998
20
-16.125000000000064
10
754.83750000000032
20
-11.61147798739111
42
0.40479736558128171
10
754.35362499999985
20
-11.11173807065949
42
-0.4047973655816276
10
753.86975000000029
20
-10.611998153927765
10
753.86974999999984
20
-3.6119981539277735
42
-0.41421356237337953
10
754.36975000000007
20
-3.1119981539279018
10
754.38774748257504
20
-3.1119981539277397
42
0.32376123190548972
10
754.86262374128751
20
-2.7684990769640079
42
-0.32376123190647776
10
755.33749999999998
20
-2.4250000000000935
10
768.53750000000002
20
-2.4250000000001477
42
-0.32376123190566092
10
769.01237625871249
20
-2.7684990769638174
42
0.32376123190581618
10
769.4872525174253
20
-3.1119981539276753
10
772.82775000000015
20
-3.1119981539279173
42
-0.41421356237277507
10
773.32775000000026
20
-3.611998153927769
10
773.32774999999981
20
-10.611998153927766
42
-0.41421356237318868
10
772.82775000000015
20
-11.11199815392766
10
771.91874999999982
20
-11.111998153927853
42
0.41421356237326412
10
771.41875000000016
20
-11.611998153927765
10
771.41875000000027
20
-26.488000000000042
42
0.41421356237310542
10
771.91875000000005
20
-26.98800000000017
10
772.82775000000015
20
-26.987999999999936
42
-0.41421356237310802
10
773.32775000000026
20
-27.488000000000071
10
773.32774999999981
20
-34.488000000000063
42
-0.41421356237307422
10
772.82775000000015
20
-34.988000000000007
10
771.19999999999993
20
-34.988000000000021
42
0.41421356237284268
10
770.69999999999993
20
-35.488000000000063
10
770.69999999999982
20
-37.084000000000074
42
-0.41421356237292595
10
770.19999999999982
20
-37.584000000000096
10
763.19999999999982
20
-37.58400000000001
42
-0.41421356237307161
10
762.69999999999982
20
-37.084000000000074
10
762.70000000000005
20
-36.175000000000097
42
0.4142135623728167
10
762.20000000000016
20
-35.674999999999748
10
747.38749999999982
20
-35.67500000000004
42
0.41421356237295975
10
746.88750000000016
20
-36.175000000000061
10
746.88749999999982
20
-37.084000000000074
42
-0.41421356237292856
10
746.38749999999982
20
-37.584000000000103
10
739.38750000000016
20
-37.583999999999726
42
-0.41421356237340717
10
738.88749999999982
20
-37.084000000000074
10
738.88749999999982
20
-36.175000000000011
42
0.41421356237303258
10
738.38750000000005
20
-35.675000000000296
10
736.28749999999968
20
-35.675000000000139
42
-0.41421356237291035
10
735.78749999999991
20
-35.175000000000054
10
735.78749999999991
20
-21.975000000000065
42
-0.41421356237240564
10
736.28749999999968
20
-21.475000000000062
10
738.38749999999993
20
-21.475000000000094
42
0.41421356237295975
10
738.88749999999982
20
-20.975000000000069
10
738.88749999999982
20
-18.626000000000069
42
-0.41421356237347745
10
739.38750000000016
20
-18.126000000000079
10
746.38749999999982
20
-18.126000000000239
42
-0.41421356237301438
10
746.88749999999982
20
-18.626000000000072
10
746.88750000000016
20
-20.975000000000104
42
0.41421356237260859
10
747.38749999999982
20
-21.474999999999813
10
756.71875
20
-21.475000000000094
42
0.41421356237280627
10
757.21875
20
-20.975000000000069
10
757.21875
20
-17.125000000000064
42
0.41421356237278284
0
LWPOLYLINE
5
147
100
AcDbEntity
8
0
100
AcDbPolyline
90
8
70
1
43
0.0
10
573.77499999999998
20
-2.9250000000000487
42
0.41421356237312235
10
573.27499999999998
20
-2.4250000000000305
10
560.07500000000005
20
-2.4250000000000331
42
0.41421356237314838
10
559.57500000000016
20
-2.9250000000000487
10
559.57500000000005
20
-16.125000000000046
42
0.41421356237317308
10
560.07500000000005
20
-16.625000000000014
10
573.27499999999998
20
-16.625000000000071
42
0.41421356237312235
10
573.77499999999998
20
-16.12500000000005
0
LWPOLYLINE
5
148
100
AcDbEntity
8
0
100
AcDbPolyline
90
4
70
1
43
0.0
10
678.49425000229201
20
-57.899999999999999
10
669.16824999770847
20
-57.900000000000134
42
-0.99999999999999989
10
669.16824999770847
20
-56.400000000000112
10
678.49425000229178
20
-56.399999999999999
42
-0.99999999999999989
0
LWPOLYLINE
5
149
100
AcDbEntity
8
0
100
AcDbPolyline
90
8
70
1
43
0.0
10
526.23749999999995
20
-35.175000000000054
42
0.41421356237302998
10
526.73749999999995
20
-35.675000000000054
10
539.9375
20
-35.675000000000054
42
0.41421356237320167
10
540.43749999999989
20
-35.175000000000054
10
540.4375
20
-21.975000000000048
42
0.41421356237304041
10
539.9375
20
-21.475000000000065
10
526.73749999999995
20
-21.47500000000003
42
0.41421356237312101
10
526.23749999999995
20
-21.975000000000048
0
LWPOLYLINE
5
150
100
AcDbEntity
8
0
100
AcDbPolyline
90
8
70
1
43
0.0
10
716.65000000000055
20
-60.075000000000074
42
0.414213562372658
10
716.15000000000032
20
-59.574999999999854
10
702.95000000000016
20
-59.575000000000145
42
0.41421356237290774
10
702.45000000000016
20
-60.075000000000074
10
702.45000000000016
20
-73.275000000000063
42
0.41421356237411999
10
702.95000000000016
20
-73.775000000000063
10
716.15000000000032
20
-73.774999999999935
42
0.41421356237301699
10
716.65000000000032
20
-73.275000000000063
0
LWPOLYLINE
5
151
100
AcDbEntity
8
0
100
AcDbPolyline
90
4
70
1
43
0.0
10
568.92499999999995
20
-57.900000000000048
42
0.99999999999999989
10
568.92499999999995
20
-56.400000000000041
10
541.375
20
-56.40000000000007
42
0.99999999999999989
10
541.375
20
-57.90000000000007
0
LWPOLYLINE
5
152
100
AcDbEntity
8
0
100
AcDbPolyline
90
8
70
1
43
0.0
10
616.13750000000016
20
-35.675000000000026
42
0.4142135623732589
10
616.63750000000027
20
-35.175000000000054
10
616.63750000000027
20
-21.975000000000051
42
0.41421356237330575
10
616.13750000000027
20
-21.475000000000101
10
602.9375
20
-21.47500000000003
42
0.41421356237312101
10
602.4375
20
-21.975000000000048
10
602.4375
20
-35.175000000000054
42
0.41421356237312101
10
602.9375
20
-35.675000000000068
0
LWPOLYLINE
5
153
100
AcDbEntity
8
0
100
AcDbPolyline
90
8
70
1
43
0.0
10
707.12499999999989
20
-41.025000000000063
10
707.12499999999989
20
-54.225000000000065
42
-0.41421356237242385
10
706.62500000000011
20
-54.725000000000179
10
693.42499999999995
20
-54.72500000000025
42
-0.41421356237321988
10
692.9250000000003
20
-54.225000000000065
10
692.92500000000018
20
-41.025000000000055
42
-0.41421356237329271
10
693.42499999999995
20
-40.525000000000233
10
706.62500000000011
20
-40.525000000000148
42
-0.41421356237397949
0
LWPOLYLINE
5
154
100
AcDbEntity
8
0
100
AcDbPolyline
90
36
70
1
43
0.0
10
503.14375000000013
20
-40.065365466701024
10
503.14375000000013
20
-37.676050000000039
42
-0.4142135623733838
10
503.64375000000001
20
-37.176050000000039
10
510.64375000000013
20
-37.176050000000103
42
-0.41421356237303519
10
511.14375000000001
20
-37.676050000000039
10
511.14375000000001
20
-40.025000000000055
42
0.4142135623730222
10
511.64375000000007
20
-40.525000000000119
10
526.45625000000007
20
-40.525000000000034
42
0.41421356237312101
10
526.95625000000007
20
-40.025000000000041
10
526.95624999999995
20
-37.676000000000045
42
-0.41421356237328494
10
527.45624999999995
20
-37.17600000000003
10
534.45624999999995
20
-37.176000000000116
42
-0.4142135623729884
10
534.95624999999995
20
-37.676000000000045
10
534.95625000000007
20
-40.06536546670101
42
0.33297161395374802
10
535.31562500000007
20
-40.545182733350586
42
-0.33297161395337338
10
535.67500000000007
20
-41.025000000000034
10
535.67499999999995
20
-54.225000000000058
42
-0.332971613953914
10
535.31562499999995
20
-54.704817266649556
42
0.33297161395372654
10
534.95624999999995
20
-55.184634533299075
10
534.95625000000007
20
-56.134000000000043
42
-0.41421356237326673
10
534.45624999999995
20
-56.634000000000036
10
527.45625000000007
20
-56.633999999999972
42
-0.41421356237299095
10
526.95624999999995
20
-56.134000000000043
10
526.95624999999995
20
-55.225000000000072
42
0.41421356237311585
10
526.45625000000018
20
-54.725000000000065
10
511.64375000000007
20
-54.725000000000009
42
0.41421356237325113
10
511.14375000000001
20
-55.225000000000051
10
511.14375000000001
20
-56.134050000000045
42
-0.41421356237331874
10
510.64375000000013
20
-56.634050000000045
10
503.64375000000001
20
-56.634049999999966
42
-0.41421356237285573
10
503.14375000000013
20
-56.134050000000045
10
503.14375000000013
20
-55.184634533299075
42
0.33297161395373842
10
502.78437500000001
20
-54.704817266649492
42
-0.33297161395419078
10
502.42500000000007
20
-54.225000000000058
10
502.42500000000007
20
-41.025000000000055
42
-0.33297161395352265
10
502.78437500000001
20
-40.545182733350551
42
0.33297161395376795
0
LWPOLYLINE
5
155
100
AcDbEntity
8
0
100
AcDbPolyline
90
8
70
1
43
0.0
10
740.54999999999995
20
-73.275000000000063
10
740.55000000000052
20
-60.075000000000074
42
-0.41421356237268397
10
741.05000000000007
20
-59.575000000000067
10
754.25
20
-59.575000000000117
42
-0.41421356237383383
10
754.75000000000011
20
-60.075000000000074
10
754.74999999999955
20
-73.275000000000063
42
-0.41421356237300139
10
754.25
20
-73.775000000000276
10
741.05000000000007
20
-73.77499999999992
42
-0.4142135623736049
0
LWPOLYLINE
5
156
100
AcDbEntity
8
0
100
AcDbPolyline
90
8
70
1
43
0.0
10
521.97500000000002
20
-2.4250000000000238
10
535.17499999999995
20
-2.425000000000026
42
-0.41421356237312201
10
535.67499999999995
20
-2.9250000000000438
10
535.67499999999995
20
-16.125000000000043
42
-0.41421356237312495
10
535.17499999999995
20
-16.625000000000064
10
521.97500000000002
20
-16.625000000000021
42
-0.41421356237313794
10
521.47500000000014
20
-16.125000000000046
10
521.47500000000014
20
-2.9250000000000398
42
-0.41421356237314771
0
LWPOLYLINE
5
157
100
AcDbEntity
8
0
100
AcDbPolyline
90
8
70
1
43
0.0
10
630.92499999999995
20
-41.025000000000055
42
0.41421356237319906
10
630.42500000000018
20
-40.525000000000048
10
617.2249999999998
20
-40.525000000000148
42
0.41421356237304302
10
616.72499999999991
20
-41.025000000000055
10
616.72500000000002
20
-54.225000000000065
42
0.41421356237332918
10
617.2249999999998
20
-54.725000000000115
10
630.42500000000018
20
-54.724999999999973
42
0.41421356237304818
10
630.92499999999995
20
-54.225000000000065
0
LWPOLYLINE
5
158
100
AcDbEntity
8
0
100
AcDbPolyline
90
8
70
1
43
0.0
10
598.17500000000018
20
-40.525000000000077
42
0.41421356237339679
10
597.67500000000018
20
-41.025000000000055
10
597.67499999999995
20
-54.225000000000065
42
0.41421356237342283
10
598.17500000000018
20
-54.72499999999993
10
611.375
20
-54.725000000000072
42
0.41421356237311585
10
611.875
20
-54.225000000000065
10
611.875
20
-41.025000000000055
42
0.41421356237311585
10
611.375
20
-40.525000000000048
0
LWPOLYLINE
5
159
100
AcDbEntity
8
0
100
AcDbPolyline
90
8
70
1
43
0.0
10
630.42500000000018
20
-16.625000000000004
42
0.41421356237325374
10
630.92499999999995
20
-16.12500000000005
10
630.92499999999995
20
-2.9250000000000527
42
0.41421356237320495
10
630.42500000000018
20
-2.4250000000000416
10
617.2249999999998
20
-2.4250000000001357
42
0.41421356237318674
10
616.72500000000002
20
-2.9250000000000487
10
616.72500000000002
20
-16.12500000000005
42
0.41421356237331874
10
617.2249999999998
20
-16.62500000000005
0
LWPOLYLINE
5
160
100
AcDbEntity
8
0
100
AcDbPolyline
90
8
70
1
43
0.0
10
669.02500000000032
20
-2.9250000000000576
10
669.02499999999986
20
-16.12500000000005
42
-0.41421356237348395
10
668.5250000000002
20
-16.625000000000068
10
655.32500000000016
20
-16.625000000000323
42
-0.41421356237276985
10
654.82500000000016
20
-16.125000000000053
10
654.82500000000016
20
-2.9250000000000487
42
-0.41421356237309209
10
655.32500000000016
20
-2.4250000000000331
10
668.5250000000002
20
-2.4250000000000971
42
-0.41421356237450369
0
LWPOLYLINE
5
161
100
AcDbEntity
8
0
100
AcDbPolyline
90
8
70
1
43
0.0
10
554.72499999999991
20
-2.9250000000000465
42
0.41421356237305668
10
554.22500000000002
20
-2.4250000000000691
10
541.02499999999998
20
-2.425000000000094
42
0.41421356237333273
10
540.52499999999998
20
-2.9250000000000398
10
540.52499999999998
20
-16.125000000000046
42
0.41421356237350604
10
541.02499999999998
20
-16.624999999999979
10
554.22500000000002
20
-16.625000000000025
42
0.41421356237305601
10
554.72499999999991
20
-16.12500000000005
0
LWPOLYLINE
5
162
100
AcDbEntity
8
0
100
AcDbPolyline
90
52
70
1
43
0.0
10
572.69999999999982
20
-56.226000000000042
10
579.70000000000016
20
-56.22600000000007
10
586.99810000000002
20
-56.223500000000072
10
593.99810000000002
20
-56.223500000000037
42
-0.41421356237300661
10
594.49810000000002
20
-56.723500000000072
10
594.49810000000002
20
-59.075000000000067
42
0.41421356237327195
10
594.99810000000002
20
-59.575000000000074
10
609.80000000000018
20
-59.57500000000006
42
0.41421356237318868
10
610.29999999999995
20
-59.075000000000067
10
610.29999999999995
20
-56.726000000000035
42
-0.41421356237293894
10
610.79999999999995
20
-56.226000000000056
10
617.79999999999995
20
-56.226000000000113
42
-0.41421356237298579
10
618.29999999999995
20
-56.726000000000035
10
618.29999999999995
20
-76.175030451969619
42
0.41421348198692737
10
618.79999986277289
20
-76.67503045196959
10
657.42499986277289
20
-76.675041052756384
42
0.41421364275885103
10
657.92500000000018
20
-76.175041052756342
10
657.92500000000018
20
-56.726000000000035
42
-0.41421356237341761
10
658.42499999999984
20
-56.226000000000056
10
665.42500000000018
20
-56.226000000000184
42
-0.4142135623731939
10
665.92499999999984
20
-56.726000000000035
10
665.92499999999961
20
-59.075000000000287
42
0.41421356237329793
10
666.42499999999995
20
-59.575000000000173
10
681.23750000000018
20
-59.574999999996017
42
0.41421356237327711
10
681.7375000000003
20
-59.074999999996159
10
681.73750000000018
20
-56.726000000000035
42
-0.41421356237321472
10
682.23749999999995
20
-56.226000000000056
10
693.99999999999989
20
-56.226000000000099
42
-0.41421356237309503
10
694.49999999999989
20
-56.72600000000007
10
694.49999999999989
20
-76.175051365366372
42
0.41421348198733837
10
694.99999986277305
20
-76.675051365366372
10
767.19996444449771
20
-76.675071180937294
10
774.69999707248815
20
-76.675073376564612
42
0.41421356237308854
10
776.69999765798593
20
-74.67507396206264
10
776.70001907257927
20
-1.525068962090117
42
0.4142135623734573
10
774.70001965807569
20
0.47493162340793232
10
767.19998492802051
20
0.47493381902955711
10
509.0249820209778
20
0.47499567622884875
10
501.52498302097803
20
0.4749976765336153
42
0.41421356237310014
10
499.52498148756524
20
-1.5249947900513452
10
499.52497648043732
20
-12.799997084760379
10
499.52496898504683
20
-63.400000790050193
10
499.52496497791992
20
-74.675006790049537
42
0.41421370881572561
10
501.52496844447853
20
-76.674998323461978
10
509.0249614445072
20
-76.67500032376843
10
563.83749986277292
20
-76.675015367290328
42
0.41421364275892386
10
564.3375000000002
20
-76.175015367290229
10
564.3375000000002
20
-60.075000000000045
42
-0.41421356237313667
10
564.83749999999998
20
-59.575000000000045
10
571.70000000000027
20
-59.57500000000006
42
0.41421356237315748
10
572.20000000000016
20
-59.075000000000053
10
572.20000000000027
20
-56.726000000000035
42
-0.41421356237287132
0
ENDSEC
0
SECTION
2
OBJECTS
0
DICTIONARY
5
C
100
AcDbDictionary
3
ACAD_GROUP
350
D
3
ACAD_MLINESTYLE
350
17
0
DICTIONARY
5
D
100
AcDbDictionary
0
DICTIONARY
5
1A
330
C
100
AcDbDictionary
0
DICTIONARY
5
17
100
AcDbDictionary
0
ENDSEC
0
EOF
