0
SECTION
2
HEADER
9
$INSUNITS
70
4
9
$ACADVER
1
AC1014
9
$HANDSEED
5
FFFF
0
ENDSEC
0
SECTION
2
TABLES
0
TABLE
2
VPORT
5
8
100
AcDbSymbolTable
0
ENDTAB
0
TABLE
2
LTYPE
5
5
100
AcDbSymbolTable
0
LTYPE
5
14
100
AcDbSymbolTableRecord
100
AcDbLinetypeTableRecord
2
BYBLOCK
70
0
0
LTYPE
5
15
100
AcDbSymbolTableRecord
100
AcDbLinetypeTableRecord
2
BYLAYER
70
0
0
ENDTAB
0
TABLE
2
LAYER
5
2
100
AcDbSymbolTable
70
2
0
LAYER
5
50
100
AcDbSymbolTableRecord
100
AcDbLayerTableRecord
2
0
70
0
6
CONTINUOUS
0
ENDTAB
0
TABLE
2
STYLE
5
3
100
AcDbSymbolTable
70
1
0
STYLE
5
11
100
AcDbSymbolTableRecord
100
AcDbTextStyleTableRecord
2
STANDARD
70
0
0
ENDTAB
0
TABLE
2
VIEW
5
6
100
AcDbSymbolTable
70
0
0
ENDTAB
0
TABLE
2
UCS
5
7
100
AcDbSymbolTable
70
0
0
ENDTAB
0
TABLE
2
APPID
5
9
100
AcDbSymbolTable
70
2
0
APPID
5
12
100
AcDbSymbolTableRecord
100
AcDbRegAppTableRecord
2
ACAD
70
0
0
ENDTAB
0
TABLE
2
DIMSTYLE
5
A
100
AcDbSymbolTable
70
1
0
ENDTAB
0
TABLE
2
BLOCK_RECORD
5
1
100
AcDbSymbolTable
70
1
0
BLOCK_RECORD
5
1F
100
AcDbSymbolTableRecord
100
AcDbBlockTableRecord
2
*MODEL_SPACE
0
BLOCK_RECORD
5
1B
100
AcDbSymbolTableRecord
100
AcDbBlockTableRecord
2
*PAPER_SPACE
0
ENDTAB
0
ENDSEC
0
SECTION
2
BLOCKS
0
BLOCK
5
20
100
AcDbEntity
100
AcDbBlockBegin
2
*MODEL_SPACE
0
ENDBLK
5
21
100
AcDbEntity
100
AcDbBlockEnd
0
BLOCK
5
1C
100
AcDbEntity
100
AcDbBlockBegin
2
*PAPER_SPACE
0
ENDBLK
5
1D
100
AcDbEntity
100
AcDbBlockEnd
0
ENDSEC
0
SECTION
2
ENTITIES
0
CIRCLE
5
100
100
AcDbEntity
8
0
100
AcDbCircle
10
117.34828402561985
20
212.82500509723974
30
0
40
1.1000000000001364
210
9.8607613152626476e-32
220
-1.3684555315672095e-47
230
1
0
CIRCLE
5
101
100
AcDbEntity
8
0
100
AcDbCircle
10
117.34828402561985
20
123.67500509726167
30
0
40
1.1000000000001364
210
9.8607613152626476e-32
220
-1.3684555315672095e-47
230
1
0
CIRCLE
5
102
100
AcDbEntity
8
0
100
AcDbCircle
10
-42.689217075796151
20
123.67500509726167
30
0
40
1.1000000000001364
210
9.8607613152626476e-32
220
-1.3684555315672095e-47
230
1
0
CIRCLE
5
103
100
AcDbEntity
8
0
100
AcDbCircle
10
-202.72671817721329
20
123.67500509726167
30
0
40
1.1000000000001364
210
9.8607613152626476e-32
220
-1.3684555315672095e-47
230
1
0
CIRCLE
5
104
100
AcDbEntity
8
0
100
AcDbCircle
10
-42.689217075796144
20
212.82500509723974
30
0
40
1.1000000000001364
210
9.8607613152626476e-32
220
-1.3684555315672095e-47
230
1
0
CIRCLE
5
105
100
AcDbEntity
8
0
100
AcDbCircle
10
-202.72671817721329
20
212.82500509723974
30
0
40
1.1000000000001364
210
9.8607613152626476e-32
220
-1.3684555315672095e-47
230
1
0
LWPOLYLINE
5
106
100
AcDbEntity
8
0
100
AcDbPolyline
90
8
70
1
43
0.0
10
-207.72671817721343
20
214.82500509723994
42
-0.41421356237352863
10
-204.72671817721252
20
217.82500509723988
10
119.34828402562073
20
217.82500509723846
42
-0.4142135623727794
10
122.34828402562016
20
214.82500509723991
10
122.34828402561959
20
121.67500509726008
42
-0.41421356237333434
10
119.3482840256203
20
118.67500509726224
10
-204.72671817721266
20
118.67500509725832
42
-0.41421356237303958
10
-207.72671817721314
20
121.6750050972598
0
CIRCLE
5
107
100
AcDbEntity
8
0
100
AcDbCircle
10
-42.689217075780405
20
285.02500444966239
30
0
40
1.0999999999998522
210
-4.8617306858290083e-62
220
-3.5032461608120427e-46
230
1
0
CIRCLE
5
108
100
AcDbEntity
8
0
100
AcDbCircle
10
117.34828402563645
20
285.02500444966012
30
0
40
1.0999999999998522
210
-4.8617306858290083e-62
220
-3.5032461608120427e-46
230
1
0
CIRCLE
5
109
100
AcDbEntity
8
0
100
AcDbCircle
10
-202.7267181771964
20
285.02500444966495
30
0
40
1.1000000000001364
210
9.8607613152626476e-32
220
-7.1433378747808058e-46
230
1
0
LWPOLYLINE
5
110
100
AcDbEntity
8
0
100
AcDbPolyline
90
12
70
1
43
0.0
10
111.40655643465861
20
302.12500412587156
42
-0.22365520553052945
10
112.94820788882103
20
301.39909627084319
10
121.88993547979875
20
290.57960617528317
42
-0.17440161357179768
10
122.34828402563635
20
289.30551403031114
10
122.34828402563616
20
283.0250044496604
42
-0.4142135623731939
10
119.34828402563636
20
280.02500444966012
10
-204.72671817719646
20
280.02500444966495
42
-0.41421356237302914
10
-207.72671817719646
20
283.02500444966506
10
-207.72671817719623
20
289.30551403031666
42
-0.17440161357179218
10
-207.26836963135844
20
290.57960617528875
10
-198.32664204038082
20
301.3990962708483
42
-0.22365520553065782
10
-196.7849905862181
20
302.12500412587696
0
CIRCLE
5
111
100
AcDbEntity
8
0
100
AcDbCircle
10
117.34828402563686
20
256.92500477344942
30
0
40
1.0999999999998522
210
4.8617306858289807e-62
220
3.5032461608120427e-46
230
1
0
CIRCLE
5
112
100
AcDbEntity
8
0
100
AcDbCircle
10
-42.689217075779851
20
256.92500477345061
30
0
40
1.1000000000001364
210
9.8607613152626476e-32
220
-1.368455531567194e-47
230
1
0
CIRCLE
5
113
100
AcDbEntity
8
0
100
AcDbCircle
10
-202.72671817719586
20
256.92500477345311
30
0
40
1.1000000000001364
210
9.8607613152626476e-32
220
-1.368455531567194e-47
230
1
0
LWPOLYLINE
5
114
100
AcDbEntity
8
0
100
AcDbPolyline
90
12
70
1
43
0.0
10
-196.78499058621759
20
277.02500444966483
10
111.40655643465912
20
277.02500444966029
42
-0.22365520553063659
10
112.94820788882149
20
276.29909659463203
10
121.88993547979941
20
265.4796064990723
42
-0.17440161357166681
10
122.34828402563681
20
264.20551435410027
10
122.34828402563679
20
254.92500477344905
42
-0.41421356237310197
10
119.34828402563693
20
251.9250047734493
10
-204.72671817719589
20
251.92500477345317
42
-0.41421356237310197
10
-207.72671817719589
20
254.92500477345294
10
-207.72671817719569
20
264.20551435410482
42
-0.17440161357188372
10
-207.2683696313581
20
265.479606499076
10
-198.32664204037999
20
276.29909659463641
42
-0.2236552055303519
0
CIRCLE
5
115
100
AcDbEntity
8
0
100
AcDbCircle
10
-42.689217075780448
20
225.8250050972394
30
0
40
1.1000000000001364
210
9.8607613152626476e-32
220
-3.6400917139687631e-46
230
1
0
CIRCLE
5
116
100
AcDbEntity
8
0
100
AcDbCircle
10
-202.7267181771964
20
225.8250050972394
30
0
40
1.1000000000001364
210
9.8607613152626476e-32
220
-3.6400917139687631e-46
230
1
0
CIRCLE
5
117
100
AcDbEntity
8
0
100
AcDbCircle
10
117.3482840256363
20
225.8250050972394
30
0
40
1.1000000000001364
210
9.8607613152626476e-32
220
-3.6400917139687631e-46
230
1
0
LWPOLYLINE
5
118
100
AcDbEntity
8
0
100
AcDbPolyline
90
12
70
1
43
0.0
10
-198.32664204038076
20
248.19909691842267
42
-0.22365520553051441
10
-196.78499058621838
20
248.92500477345106
10
111.40655643465826
20
248.92500477345044
42
-0.22365520553062179
10
112.94820788882065
20
248.19909691842216
10
121.88993547979859
20
237.37960682286217
42
-0.17440161357187606
10
122.34828402563627
20
236.10551467789048
10
122.34828402563637
20
223.82500509723889
42
-0.41421356237314538
10
119.34828402563636
20
220.82500509723874
10
-204.72671817719632
20
220.8250050972394
42
-0.41421356237307771
10
-207.72671817719646
20
223.82500509723886
10
-207.72671817719626
20
236.10551467789105
42
-0.17440161357160344
10
-207.26836963135852
20
237.37960682286274
0
CIRCLE
5
119
100
AcDbEntity
8
0
100
AcDbCircle
10
115.34828402558571
20
112.67500509726084
30
0
40
1.1000000000001364
210
9.8607613152626476e-32
220
-1.8230564591538294e-44
230
1
0
CIRCLE
5
120
100
AcDbEntity
8
0
100
AcDbCircle
10
-204.72671817724742
20
23.525005097279397
30
0
40
1.1000000000001364
210
9.8607613152626476e-32
220
-1.8230564591538294e-44
230
1
0
CIRCLE
5
121
100
AcDbEntity
8
0
100
AcDbCircle
10
-44.689217075831415
20
112.67500509726084
30
0
40
1.1000000000001364
210
9.8607613152626476e-32
220
-1.8230564591538294e-44
230
1
0
CIRCLE
5
122
100
AcDbEntity
8
0
100
AcDbCircle
10
-204.72671817724739
20
112.67500509726084
30
0
40
1.1000000000001364
210
9.8607613152626476e-32
220
-1.8230564591538294e-44
230
1
0
LWPOLYLINE
5
123
100
AcDbEntity
8
0
100
AcDbPolyline
90
8
70
1
43
0.0
10
-198.72673159220943
20
104.67500309758144
42
-0.41421356237322771
10
-196.72673159220921
20
106.67500309758054
10
107.34828402558499
20
106.6750030975808
42
-0.41421356237226775
10
109.34828402558512
20
104.67500309758144
10
109.34828402558544
20
31.525005097278942
42
-0.41421356237267493
10
107.34828402558506
20
29.525005097278701
10
-196.72673159220946
20
29.525005097278708
42
-0.41421356237284462
10
-198.72673159220992
20
31.525005097278942
0
CIRCLE
5
124
100
AcDbEntity
8
0
100
AcDbCircle
10
115.34828402558571
20
23.525005097279397
30
0
40
1.1000000000001364
210
9.8607613152626476e-32
220
-1.8230564591538294e-44
230
1
0
CIRCLE
5
125
100
AcDbEntity
8
0
100
AcDbCircle
10
-44.689217075831429
20
23.525005097279397
30
0
40
1.1000000000001364
210
9.8607613152626476e-32
220
-1.8230564591538294e-44
230
1
0
LWPOLYLINE
5
126
100
AcDbEntity
8
0
100
AcDbPolyline
90
8
70
1
43
0.0
10
-204.72671817724739
20
115.67500509726152
10
115.3482840255851
20
115.67500509726042
42
-0.41421356237315404
10
118.34828402558529
20
112.67500509726084
10
118.34828402558369
20
23.525005097279397
42
-0.41421356237309503
10
115.34828402558571
20
20.525005097281415
10
-204.72671817724734
20
20.525005097278857
42
-0.41421356237310114
10
-207.72671817724796
20
23.52500509727939
10
-207.72671817724807
20
112.67500509726084
42
-0.41421356237309503
0
CIRCLE
5
127
100
AcDbEntity
8
0
100
AcDbCircle
10
-193.22673024037749
20
94.825009291882651
30
0
40
1.1000000000069574
210
9.8607613152626498e-32
220
-5.5961494218828021e-33
230
1
0
CIRCLE
5
128
100
AcDbEntity
8
0
100
AcDbCircle
10
-121.07672724037818
20
94.825011478271762
30
0
40
1.1000000000018417
210
-7.7662174379537158e-49
220
-5.5961494335433425e-33
230
1
0
CIRCLE
5
129
100
AcDbEntity
8
0
100
AcDbCircle
10
-193.2267328144942
20
68.925009291883114
30
0
40
1.1000000000001364
210
9.8607613152626476e-32
220
-5.5961494374302078e-33
230
1
0
CIRCLE
5
130
100
AcDbEntity
8
0
100
AcDbCircle
10
-121.07672681449478
20
68.925011478271713
30
0
40
1.1000020000039967
210
-7.759891163193013e-49
220
-5.5915908721585525e-33
230
1
0
CIRCLE
5
131
100
AcDbEntity
8
0
100
AcDbCircle
10
-138.10165173708148
20
81.874984033093511
30
0
40
9.4999999999998863
210
1.4536661285370373e-48
220
1.0474768375680606e-32
230
1
0
LWPOLYLINE
5
132
100
AcDbEntity
8
0
100
AcDbPolyline
90
8
70
1
43
0.0
10
-193.72673159220903
20
97.325013486493475
10
-120.57672524859994
20
97.325013486494328
42
-0.41421356237304563
10
-118.57672524859939
20
95.325013486494157
10
-118.57672524860016
20
68.425009291882205
42
-0.41421356237284657
10
-120.57672524859998
20
66.425009291883399
10
-193.72673159220881
20
66.425009291882262
42
-0.41421356237334478
10
-195.72673159220932
20
68.425009291882219
10
-195.72673159220903
20
95.325013486494171
42
-0.41421356237265539
0
CIRCLE
5
133
100
AcDbEntity
8
0
100
AcDbCircle
10
-193.22673024038014
20
60.925005097277911
30
0
40
1.1000000000069574
210
9.8607613152626498e-32
220
-5.5961494218803498e-33
230
1
0
CIRCLE
5
134
100
AcDbEntity
8
0
100
AcDbCircle
10
-138.10165173708413
20
47.974979838486142
30
0
40
13.000000000000114
210
-2.0842561020112177e-49
220
-1.5018648006979882e-33
230
1
0
CIRCLE
5
135
100
AcDbEntity
8
0
100
AcDbCircle
10
-193.22673281449678
20
35.025005097278658
30
0
40
1.1000000000001364
210
9.8607613152626476e-32
220
-5.5961494374281059e-33
230
1
0
CIRCLE
5
136
100
AcDbEntity
8
0
100
AcDbCircle
10
-121.0767268144963
20
35.025007283666405
30
0
40
1.1000020000039967
210
-7.7598911631899197e-49
220
-5.5915908721564506e-33
230
1
0
CIRCLE
5
137
100
AcDbEntity
8
0
100
AcDbCircle
10
-121.07672724037968
20
60.925007283666723
30
0
40
1.1000000000018417
210
-7.766217437950621e-49
220
-5.5961494335412406e-33
230
1
0
LWPOLYLINE
5
138
100
AcDbEntity
8
0
100
AcDbPolyline
90
8
70
1
43
0.0
10
-195.72673159221236
20
61.425009291886845
42
-0.41421356237308982
10
-193.72673159221188
20
63.425009291887655
10
-120.57672524860159
20
63.425009291886731
42
-0.41421356237288431
10
-118.57672524860207
20
61.4250092918872
10
-118.5767252486016
20
34.5250050972789
42
-0.41421356237284074
10
-120.57672524860152
20
32.525005097278658
10
-193.72673159221165
20
32.525005097278658
42
-0.4142135623731939
10
-195.72673159221137
20
34.525005097278687
0
CIRCLE
5
139
100
AcDbEntity
8
0
100
AcDbCircle
10
-113.07672389677043
20
60.92500509727784
30
0
40
1.1000000000069574
210
9.8607613152626498e-32
220
8.4106138099394639e-33
230
1
0
CIRCLE
5
140
100
AcDbEntity
8
0
100
AcDbCircle
10
-40.926720470887119
20
35.025007283668181
30
0
40
1.1000020000039967
210
1.1678362295132902e-48
220
8.4151468929054284e-33
230
1
0
CIRCLE
5
141
100
AcDbEntity
8
0
100
AcDbCircle
10
-113.07672647088653
20
35.025005097277734
30
0
40
1.1000000000001364
210
9.8607613152626476e-32
220
8.4106137944789366e-33
230
1
0
CIRCLE
5
142
100
AcDbEntity
8
0
100
AcDbCircle
10
-40.926720896771144
20
60.92500728366857
30
0
40
1.1000000000018417
210
1.1672071362689394e-48
220
8.4106137983440817e-33
230
1
0
LWPOLYLINE
5
143
100
AcDbEntity
8
0
100
AcDbPolyline
90
8
70
1
43
0.0
10
-38.426718904992612
20
34.525005097279113
42
-0.41421356237264761
10
-40.426718904992285
20
32.525005097280079
10
-113.57672524860104
20
32.525005097277734
42
-0.41421356237331097
10
-115.57672524860153
20
34.525005097277194
10
-115.57672524860214
20
61.425009291888912
42
-0.41421356237260465
10
-113.57672524860205
20
63.425009291887939
10
-40.426718904992988
20
63.42500929189093
42
-0.41421356237307294
10
-38.426718904992462
20
61.425009291890682
0
CIRCLE
5
144
100
AcDbEntity
8
0
100
AcDbCircle
10
117.3482840221188
20
12.525005097199866
30
0
40
2.4000000000000909
210
9.8607613152626476e-32
220
-6.8920894391850661e-44
230
1
0
LWPOLYLINE
5
145
100
AcDbEntity
8
0
100
AcDbPolyline
90
8
70
1
43
0.0
10
-195.72671818077259
20
-71.624994902562733
10
110.34828402206068
20
-71.624994902777033
42
0.41421356237296886
10
112.34828402206142
20
-69.624994902778852
10
112.34828402211461
20
5.5250050972019871
42
0.41421356237356249
10
110.34828402211602
20
7.5250050972038451
10
-195.72671818071726
20
7.5250050974175764
42
0.41421356237307422
10
-197.72671818071922
20
5.5250050974188269
10
-197.72671818077134
20
-69.62499490256144
42
0.41421356237295454
0
CIRCLE
5
146
100
AcDbEntity
8
0
100
AcDbCircle
10
-202.72671818071427
20
12.525005097423261
30
0
40
2.4000000000000909
210
9.8607613152626476e-32
220
-6.8920894391850661e-44
230
1
0
CIRCLE
5
147
100
AcDbEntity
8
0
100
AcDbCircle
10
-202.72671818077657
20
-76.624994902558186
30
0
40
2.4000000000000909
210
9.8607613152626476e-32
220
-6.8920894391850661e-44
230
1
0
CIRCLE
5
148
100
AcDbEntity
8
0
100
AcDbCircle
10
-42.689217079297173
20
12.525005097311848
30
0
40
2.4000000000000909
210
9.8607613152626476e-32
220
-6.8920894391850661e-44
230
1
0
CIRCLE
5
149
100
AcDbEntity
8
0
100
AcDbCircle
10
117.34828402205649
20
-76.62499490278158
30
0
40
2.4000000000000909
210
9.8607613152626476e-32
220
-6.8920894391850661e-44
230
1
0
CIRCLE
5
150
100
AcDbEntity
8
0
100
AcDbCircle
10
-42.68921707935948
20
-76.624994902669599
30
0
40
2.4000000000000909
210
9.8607613152626476e-32
220
-6.8920894391850661e-44
230
1
0
LWPOLYLINE
5
151
100
AcDbEntity
8
0
100
AcDbPolyline
90
8
70
1
43
0.0
10
122.34828402205592
20
-78.624994902784692
42
-0.41421356237304302
10
119.34828402205341
20
-81.624994902784664
10
-204.72671818077941
20
-81.62499490255648
42
-0.41421356237303958
10
-207.72671818077782
20
-78.624994902554093
10
-207.72671818071228
20
14.525005097426948
42
-0.41421356237297713
10
-204.72671818071012
20
17.525005097423829
10
119.34828402212288
20
17.525005097197024
42
-0.41421356237307078
10
122.3482840221199
20
14.525005097196342
0
CIRCLE
5
152
100
AcDbEntity
8
0
100
AcDbCircle
10
-202.72671818084598
20
-178.77499490253882
30
0
40
2.4000000000000909
210
9.8607613152626476e-32
220
-6.8920894391850661e-44
230
1
0
CIRCLE
5
153
100
AcDbEntity
8
0
100
AcDbCircle
10
117.34828402198708
20
-178.77499490276278
30
0
40
2.4000000000000909
210
9.8607613152626476e-32
220
-6.8920894391850661e-44
230
1
0
CIRCLE
5
154
100
AcDbEntity
8
0
100
AcDbCircle
10
-42.689217079428872
20
-178.77499490265023
30
0
40
2.4000000000000909
210
9.8607613152626476e-32
220
-6.8920894391850661e-44
230
1
0
CIRCLE
5
155
100
AcDbEntity
8
0
100
AcDbCircle
10
117.3482840220494
20
-89.624994902781907
30
0
40
2.4000000000000909
210
9.8607613152626476e-32
220
-6.8920894391850661e-44
230
1
0
CIRCLE
5
156
100
AcDbEntity
8
0
100
AcDbCircle
10
-42.689217079366564
20
-89.624994902669926
30
0
40
2.4000000000000909
210
9.8607613152626476e-32
220
-6.8920894391850661e-44
230
1
0
LWPOLYLINE
5
157
100
AcDbEntity
8
0
100
AcDbPolyline
90
56
70
1
43
0.0
10
-137.12671804929664
20
-177.77499490258478
42
-0.41421356237139889
10
-138.12671804929869
20
-178.7749949025843
10
-185.72671804929848
20
-178.77499490254996
42
-0.4142135623737922
10
-186.72671804929786
20
-177.77499490254928
10
-186.72671804929732
20
-174.77499490254928
42
0.41421356237412521
10
-187.72671804929536
20
-173.77499490254792
10
-195.72671818084203
20
-173.77499490254334
42
-0.41421356237387547
10
-197.72671818084069
20
-171.77499490254266
10
-197.72671818083421
20
-159.99999490255192
42
0.41421356237384421
10
-198.72671818083131
20
-158.99999490255283
10
-201.72671818083188
20
-158.99999490254805
42
-0.41421356237377138
10
-202.72671818083131
20
-157.99999490254737
10
-202.72671818079797
20
-110.39999490254701
42
-0.41421356237316787
10
-201.72671818079749
20
-109.39999490254792
10
-198.72671818079658
20
-109.39999490255019
42
0.41421356237288692
10
-197.72671818079633
20
-108.39999490255067
10
-197.72671818078834
20
-96.624994902561241
42
-0.41421356237271784
10
-195.72671818078703
20
-94.624994902561923
10
-187.72671804924011
20
-94.624994902568744
42
0.41421356237221058
10
-186.72671804923914
20
-93.624994902568659
10
-186.72671804923695
20
-90.624994902568403
42
-0.41421356237256957
10
-185.72671804923627
20
-89.624994902569313
10
-138.12671804923625
20
-89.624994902603916
42
-0.41421356237254875
10
-137.12671804923684
20
-90.62499490260322
10
-137.12671804923923
20
-93.624994902603191
42
0.41421356237321472
10
-136.12671804923914
20
-94.624994902605124
10
19.84828289049922
20
-94.624994902713695
42
0.41421356237221768
10
20.84828289050013
20
-93.624994902713595
10
20.848282890502578
20
-90.624994902713922
42
-0.41421356237272694
10
21.848282890503221
20
-89.624994902714263
10
69.448282890503052
20
-89.624994902748867
42
-0.41421356237252532
10
70.448282890502455
20
-90.624994902748156
10
70.44828289050065
20
-93.624994902748711
42
0.41421356237304818
10
71.44828289049903
20
-94.624994902748369
10
110.3482840220466
20
-94.62499490277753
42
-0.41421356237328494
10
112.3482840220445
20
-96.624994902778084
10
112.34828402203625
20
-108.39999490276711
42
0.41421356237262158
10
113.34828402203543
20
-109.3999949027679
10
116.34828402203532
20
-109.39999490277029
42
-0.41421356237293372
10
117.34828402203473
20
-110.39999490277053
10
117.34828402200282
20
-157.99999490277202
42
-0.41421356237128965
10
116.34828402200084
20
-158.99999490277111
10
113.34828402200117
20
-158.99999490276883
42
0.41421356237442175
10
112.34828402200054
20
-159.99999490276838
10
112.34828402199253
20
-171.77499490276006
42
-0.41421356237283491
10
110.34828402199042
20
-173.7749949027571
10
71.448282890444673
20
-173.77499490272868
42
0.41421356237446338
10
70.448282890443551
20
-174.7749949027282
10
70.448282890442812
20
-177.77499490272959
42
-0.41421356237127666
10
69.448282890440836
20
-178.77499490272868
10
21.848282890440835
20
-178.77499490269443
42
-0.41421356237204537
10
20.848282890441602
20
-177.7749949026948
10
20.848282890443272
20
-174.77499490269366
42
0.41421356237281409
10
19.848282890443993
20
-173.77499490269344
10
-136.12671804929465
20
-173.7749949025843
42
0.41421356237416163
10
-137.1267180492942
20
-174.77499490258381
0
CIRCLE
5
158
100
AcDbEntity
8
0
100
AcDbCircle
10
-202.72671818078365
20
-89.624994902558512
30
0
40
2.4000000000000909
210
9.8607613152626476e-32
220
-6.8920894391850661e-44
230
1
0
LWPOLYLINE
5
159
100
AcDbEntity
8
0
100
AcDbPolyline
90
8
70
1
43
0.0
10
-204.72671818084874
20
-183.77499490253768
42
-0.41421356237328233
10
-207.72671818084694
20
-180.7749949025349
10
-207.72671818078166
20
-87.624994902554818
42
-0.41421356237298057
10
-204.72671818077947
20
-84.624994902557944
10
119.34828402205362
20
-84.624994902783584
42
-0.41421356237287649
10
122.34828402205096
20
-87.624994902785431
10
122.34828402198744
20
-180.77499490276534
42
-0.41421356237282103
10
119.34828402198409
20
-183.77499490276506
0
CIRCLE
5
160
100
AcDbEntity
8
0
100
AcDbCircle
10
117.34828402191786
20
-280.92499490274423
30
0
40
2.4000000000000909
210
9.8607613152626476e-32
220
-6.8920894391850661e-44
230
1
0
CIRCLE
5
161
100
AcDbEntity
8
0
100
AcDbCircle
10
-42.689217079435792
20
-191.77499490265137
30
0
40
2.4000000000000909
210
9.8607613152626476e-32
220
-6.8920894391850661e-44
230
1
0
LWPOLYLINE
5
162
100
AcDbEntity
8
0
100
AcDbPolyline
90
56
70
1
43
0.0
10
70.448282890371331
20
-279.92499490271064
42
-0.4142135623734306
10
69.448282890371459
20
-280.92499490271018
10
21.8482828903716
20
-280.92499490267716
42
-0.41421356237354767
10
20.848282890372847
20
-279.92499490267625
10
20.848282890373504
20
-276.92499490267625
42
0.41421356237274126
10
19.848282890374556
20
-275.92499490267608
10
-136.12671804936386
20
-275.92499490256688
42
0.41421356237354245
10
-137.12671804936403
20
-276.92499490256643
10
-137.12671804936792
20
-279.92499490256552
42
-0.41421356237344881
10
-138.12671804936784
20
-280.9249949025666
10
-185.72671804936766
20
-280.92499490253158
42
-0.41421356237354245
10
-186.72671804936647
20
-279.92499490253073
10
-186.72671804936579
20
-276.92499490253186
42
0.4142135623730534
10
-187.72671804936465
20
-275.92499490253061
10
-195.72671818091123
20
-275.92499490252476
42
-0.41421356237270479
10
-197.72671818090987
20
-273.924994902523
10
-197.72671818090237
20
-262.14999490253336
42
0.41421356237429169
10
-198.72671818090052
20
-261.14999490253246
10
-201.72671818090117
20
-261.14999490253086
42
-0.41421356237325113
10
-202.72671818090009
20
-260.14999490252882
10
-202.72671818086664
20
-212.54999490252959
42
-0.4142135623736361
10
-201.72671818086673
20
-211.54999490252925
10
-198.72671818086582
20
-211.54999490253164
42
0.41421356237384421
10
-197.72671818086576
20
-210.54999490253323
10
-197.72671818085723
20
-198.77499490254269
42
-0.41421356237272561
10
-195.72671818085584
20
-196.77499490254326
10
-187.72671804930937
20
-196.77499490255019
42
0.41421356237190876
10
-186.72671804930792
20
-195.77499490255067
10
-186.72671804930602
20
-192.77499490255042
42
-0.41421356237205448
10
-185.72671804930579
20
-191.77499490255119
10
-138.12671804930551
20
-191.77499490258427
42
-0.41421356237368295
10
-137.12671804930633
20
-192.77499490258521
10
-137.12671804930883
20
-195.77499490258521
42
0.41421356237354767
10
-136.12671804930838
20
-196.77499490258637
10
19.848282890429978
20
-196.77499490269571
42
0.41421356237437945
10
20.848282890430756
20
-195.77499490269619
10
20.84828289043412
20
-192.7749949026948
42
-0.41421356237330054
10
21.848282890434021
20
-191.7749949026956
10
69.448282890433845
20
-191.77499490272982
42
-0.41421356237152118
10
70.448282890433603
20
-192.77499490272962
10
70.448282890430477
20
-195.77499490273073
42
0.41421356237213769
10
71.44828289042978
20
-196.77499490273104
10
110.34828402197738
20
-196.77499490275829
42
-0.41421356237316526
10
112.34828402197584
20
-198.77499490275895
10
112.34828402196675
20
-210.54999490275083
42
0.41421356237170065
10
113.34828402196612
20
-211.54999490275043
10
116.34828402196609
20
-211.54999490275219
42
-0.41421356237356327
10
117.34828402196486
20
-212.54999490275313
10
117.34828402193118
20
-260.14999490275346
42
-0.41421356237310542
10
116.34828402193131
20
-261.14999490275341
10
113.3482840219319
20
-261.14999490275028
42
0.41421356237356327
10
112.34828402193165
20
-262.14999490274982
10
112.3482840219223
20
-273.92499490274037
42
-0.41421356237275164
10
110.34828402192188
20
-275.92499490273866
10
71.448282890375467
20
-275.92499490271126
42
0.41421356237478074
10
70.448282890373321
20
-276.92499490271081
0
CIRCLE
5
163
100
AcDbEntity
8
0
100
AcDbCircle
10
-202.72671818085288
20
-191.77499490253996
30
0
40
2.4000000000000909
210
9.8607613152626476e-32
220
-6.8920894391850661e-44
230
1
0
CIRCLE
5
164
100
AcDbEntity
8
0
100
AcDbCircle
10
-42.689217079498107
20
-280.92499490263168
30
0
40
2.4000000000000909
210
9.8607613152626476e-32
220
-6.8920894391850661e-44
230
1
0
CIRCLE
5
165
100
AcDbEntity
8
0
100
AcDbCircle
10
-202.72671818091521
20
-280.92499490252027
30
0
40
2.4000000000000909
210
9.8607613152626476e-32
220
-6.8920894391850661e-44
230
1
0
CIRCLE
5
166
100
AcDbEntity
8
0
100
AcDbCircle
10
117.34828402198018
20
-191.77499490276392
30
0
40
2.4000000000000909
210
9.8607613152626476e-32
220
-6.8920894391850661e-44
230
1
0
LWPOLYLINE
5
167
100
AcDbEntity
8
0
100
AcDbPolyline
90
8
70
1
43
0.0
10
-204.72671818084876
20
-186.77499490253768
10
119.34828402198426
20
-186.77499490276506
42
-0.41421356237326501
10
122.34828402197985
20
-189.77499490276801
10
122.34828402191779
20
-282.92499490274679
42
-0.41421356237333956
10
119.34828402191482
20
-285.92499490274537
10
-204.726718180918
20
-285.92499490251913
42
-0.41421356237313323
10
-207.72671818091681
20
-282.92499490251618
10
-207.72671818085024
20
-189.77499490253737
42
-0.41421356237285223
0
CIRCLE
5
168
100
AcDbEntity
8
0
100
AcDbCircle
10
117.34828402184854
20
-383.07499490272608
30
0
40
2.4000000000000909
210
9.8607613152626476e-32
220
-6.8920894391850661e-44
230
1
0
CIRCLE
5
169
100
AcDbEntity
8
0
100
AcDbCircle
10
-42.689217079506243
20
-293.92499490263202
30
0
40
2.4000000000000909
210
9.8607613152626476e-32
220
-6.8920894391850661e-44
230
1
0
CIRCLE
5
170
100
AcDbEntity
8
0
100
AcDbCircle
10
-202.72671818092221
20
-293.92499490252061
30
0
40
2.4000000000000909
210
9.8607613152626476e-32
220
-6.8920894391850661e-44
230
1
0
CIRCLE
5
171
100
AcDbEntity
8
0
100
AcDbCircle
10
-42.689217079568557
20
-383.07499490261353
30
0
40
2.4000000000000909
210
9.8607613152626476e-32
220
-6.8920894391850661e-44
230
1
0
CIRCLE
5
172
100
AcDbEntity
8
0
100
AcDbCircle
10
117.34828402191086
20
-293.92499490274457
30
0
40
2.4000000000000909
210
9.8607613152626476e-32
220
-6.8920894391850661e-44
230
1
0
CIRCLE
5
173
100
AcDbEntity
8
0
100
AcDbCircle
10
-202.72671818098451
20
-383.07499490250211
30
0
40
2.4000000000000909
210
9.8607613152626476e-32
220
-6.8920894391850661e-44
230
1
0
LWPOLYLINE
5
174
100
AcDbEntity
8
0
100
AcDbPolyline
90
24
70
1
43
0.0
10
119.34828402184444
20
-388.07499490272721
10
-204.7267181809886
20
-388.07499490250098
42
-0.4142135623726303
10
-207.72671818098678
20
-385.07499490249802
10
-207.72671818092158
20
-291.92499490251691
42
-0.41421356237316787
10
-204.72671818091919
20
-288.92499490251947
10
87.398281486322617
20
-288.92499490272297
42
-0.41421356237316787
10
88.398281486321949
20
-289.92499490272434
10
88.398281486316336
20
-297.92499490272343
42
-0.41421356237337076
10
87.398281486315597
20
-298.92499490272411
10
-195.72671818092527
20
-298.92499490252516
42
0.41421356237324591
10
-197.72671818092675
20
-300.92499490252334
10
-197.72671818097911
20
-376.07499490250473
42
0.41421356237269963
10
-195.72671818098058
20
-378.07499490250666
10
110.34828402185128
20
-378.07499490272039
42
0.41421356237330315
10
112.34828402185202
20
-376.07499490272107
10
112.34828402190553
20
-300.92499490273957
42
0.41421356237228596
10
110.34828402190689
20
-298.92499490274002
10
104.39828148631507
20
-298.92499490273548
42
-0.41421356237354245
10
103.39828148631673
20
-297.92499490273411
10
103.39828148632064
20
-289.92499490273497
42
-0.41421356237255391
10
104.39828148632201
20
-288.92499490273548
10
119.34828402191373
20
-288.92499490274571
42
-0.4142135623731783
10
122.34828402191185
20
-291.92499490274753
10
122.34828402184641
20
-385.07499490272863
42
-0.41421356237345752
0
CIRCLE
5
175
100
AcDbEntity
8
0
100
AcDbCircle
10
117.34828402183842
20
-396.0749949027263
30
0
40
2.4000000000000909
210
9.8607613152626476e-32
220
-6.8920894391850661e-44
230
1
0
CIRCLE
5
176
100
AcDbEntity
8
0
100
AcDbCircle
10
117.34828402177611
20
-485.22499490270548
30
0
40
2.4000000000000909
210
9.8607613152626476e-32
220
-6.8920894391850661e-44
230
1
0
CIRCLE
5
177
100
AcDbEntity
8
0
100
AcDbCircle
10
-202.72671818099465
20
-396.07499490250234
30
0
40
2.4000000000000909
210
9.8607613152626476e-32
220
-6.8920894391850661e-44
230
1
0
CIRCLE
5
178
100
AcDbEntity
8
0
100
AcDbCircle
10
-42.689217079640997
20
-485.22499490259293
30
0
40
2.4000000000000909
210
9.8607613152626476e-32
220
-6.8920894391850661e-44
230
1
0
CIRCLE
5
179
100
AcDbEntity
8
0
100
AcDbCircle
10
-202.72671818105692
20
-485.22499490248151
30
0
40
2.4000000000000909
210
9.8607613152626476e-32
220
-6.8920894391850661e-44
230
1
0
CIRCLE
5
180
100
AcDbEntity
8
0
100
AcDbCircle
10
-42.689217079578683
20
-396.07499490261375
30
0
40
2.4000000000000909
210
9.8607613152626476e-32
220
-6.8920894391850661e-44
230
1
0
LWPOLYLINE
5
181
100
AcDbEntity
8
0
100
AcDbPolyline
90
24
70
1
43
0.0
10
-207.72671818105877
20
-487.22499490247969
10
-207.72671818099383
20
-394.07499490249847
42
-0.41421356237313667
10
-204.72671818099158
20
-391.0749949025012
10
87.39828148625017
20
-391.0749949027047
42
-0.41421356237364654
10
88.398281486249971
20
-392.07499490270493
10
88.398281486243832
20
-400.07499490270402
42
-0.41421356237134166
10
87.398281486243192
20
-401.0749949027047
10
-195.72671818099877
20
-401.07499490250689
42
0.41421356237317308
10
-197.7267181809998
20
-403.07499490250507
10
-197.72671818105215
20
-478.22499490248651
42
0.41421356237293894
10
-195.726718181053
20
-480.22499490248947
10
110.34828402177909
20
-480.2249949027032
42
0.41421356237206225
10
112.34828402178051
20
-478.22499490270388
10
112.34828402183359
20
-403.07499490272136
42
0.41421356237296236
10
110.34828402183444
20
-401.07499490272062
10
104.39828148624257
20
-401.07499490271408
42
-0.41421356237331353
10
103.39828148624471
20
-400.07499490271471
10
103.3982814862481
20
-392.07499490271573
42
-0.414213562371607
10
104.39828148624956
20
-391.07499490271721
10
119.34828402184132
20
-391.07499490272403
42
-0.41421356237297713
10
122.34828402183966
20
-394.07499490272812
10
122.34828402177415
20
-487.22499490271036
42
-0.41421356237281237
10
119.34828402177196
20
-490.22499490270661
10
-204.72671818106093
20
-490.22499490248026
42
-0.41421356237327545
0
ENDSEC
0
SECTION
2
OBJECTS
0
DICTIONARY
5
C
100
AcDbDictionary
3
ACAD_GROUP
350
D
3
ACAD_MLINESTYLE
350
17
0
DICTIONARY
5
D
100
AcDbDictionary
0
DICTIONARY
5
1A
330
C
100
AcDbDictionary
0
DICTIONARY
5
17
100
AcDbDictionary
0
ENDSEC
0
EOF
